<?xml version="1.0" encoding="utf-8"?>
<!-- Generator: Adobe Illustrator 24.1.1, SVG Export Plug-In . SVG Version: 6.00 Build 0)  -->
<svg version="1.1" id="Layer_1" xmlns="http://www.w3.org/2000/svg" xmlns:xlink="http://www.w3.org/1999/xlink" x="0px" y="0px"
	 viewBox="0 0 2560 1440" style="enable-background:new 0 0 2560 1440;" xml:space="preserve">
<style type="text/css">
	.st0{fill:#E2E2E2;}
	.st1{opacity:0.21;fill:none;stroke:#FFFFFF;stroke-width:0.9021;stroke-miterlimit:10;enable-background:new    ;}
	.st2{opacity:0.21;fill:none;stroke:#FFFFFF;stroke-width:0.6916;stroke-miterlimit:10;enable-background:new    ;}
	.st3{opacity:0.55;}
	.st4{opacity:0.75;}
	.st5{opacity:0.21;fill:none;stroke:#FFFFFF;stroke-width:1.0045;stroke-miterlimit:10;enable-background:new    ;}
	.st6{opacity:0.21;fill:none;stroke:#FFFFFF;stroke-width:0.5191;stroke-miterlimit:10;enable-background:new    ;}
	.st7{opacity:0.21;fill:none;stroke:#FFFFFF;stroke-width:1.0973;stroke-miterlimit:10;enable-background:new    ;}
	.st8{opacity:0.21;}
	.st9{opacity:8.000000e-02;}
	.st10{opacity:0.34;}
	.st11{fill:#141414;}
	.st12{opacity:0.21;fill:none;stroke:#FFFFFF;stroke-width:0.7412;stroke-miterlimit:10;enable-background:new    ;}
	.st13{opacity:0.21;fill:none;stroke:#FFFFFF;stroke-width:0.7651;stroke-miterlimit:10;enable-background:new    ;}
	.st14{opacity:0.1;fill:#141414;enable-background:new    ;}
	.st15{opacity:0.1;}
	.st16{fill:#25614F;}
</style>
<rect id="bg" class="st0" width="2560" height="1443.2"/>
<polygon class="st1" points="1324.1,1305.1 1259.8,1322.3 1306.9,1369.1 "/>
<polygon class="st2" points="1277.2,98.7 1228,111.8 1264,147.8 "/>
<g class="st3">
	<g class="st4">
		<polygon class="st5" points="581.1,529.8 509.5,548.9 561.9,601 		"/>
		<polygon class="st5" points="284.8,70.5 213.3,89.6 265.6,141.7 		"/>
		<polygon class="st6" points="239.6,396.3 250.7,420 226.9,431 215.8,407.3 		"/>
		<ellipse class="st7" cx="234.8" cy="679.5" rx="14.3" ry="14.2"/>
		<g class="st8">
			<ellipse cx="633.7" cy="1325" rx="6.8" ry="6.8"/>
			<ellipse cx="601.8" cy="1325" rx="6.8" ry="6.8"/>
			<ellipse cx="569.9" cy="1325" rx="6.8" ry="6.8"/>
			<ellipse cx="538" cy="1325" rx="6.8" ry="6.8"/>
			<ellipse transform="matrix(0.9565 -0.2918 0.2918 0.9565 -364.5807 205.3142)" cx="506.1" cy="1325" rx="6.8" ry="6.8"/>
			<ellipse cx="474.2" cy="1325" rx="6.8" ry="6.8"/>
			<ellipse cx="442.3" cy="1325" rx="6.8" ry="6.8"/>
			<ellipse cx="410.4" cy="1325" rx="6.8" ry="6.8"/>
			<ellipse cx="633.7" cy="1297.8" rx="6.8" ry="6.8"/>
			<ellipse cx="601.8" cy="1297.8" rx="6.8" ry="6.8"/>
			<ellipse cx="569.9" cy="1297.8" rx="6.8" ry="6.8"/>
			<ellipse cx="538" cy="1297.8" rx="6.8" ry="6.8"/>
			<ellipse transform="matrix(0.9565 -0.2918 0.2918 0.9565 -356.6444 204.1308)" cx="506.1" cy="1297.8" rx="6.8" ry="6.8"/>
			<ellipse cx="474.2" cy="1297.8" rx="6.8" ry="6.8"/>
			<ellipse cx="442.3" cy="1297.8" rx="6.8" ry="6.8"/>
			<ellipse cx="410.4" cy="1297.8" rx="6.8" ry="6.8"/>
			<ellipse cx="633.7" cy="1270.6" rx="6.8" ry="6.8"/>
			<ellipse cx="601.8" cy="1270.6" rx="6.8" ry="6.8"/>
			<ellipse cx="569.9" cy="1270.6" rx="6.8" ry="6.8"/>
			<ellipse cx="538" cy="1270.6" rx="6.8" ry="6.8"/>
			<ellipse transform="matrix(0.9565 -0.2918 0.2918 0.9565 -348.7082 202.9474)" cx="506.1" cy="1270.6" rx="6.8" ry="6.8"/>
			<ellipse cx="474.2" cy="1270.6" rx="6.8" ry="6.8"/>
			<ellipse cx="442.3" cy="1270.6" rx="6.8" ry="6.8"/>
			<ellipse cx="410.4" cy="1270.6" rx="6.8" ry="6.8"/>
		</g>
		<g class="st9">
			<ellipse cx="169.3" cy="376.1" rx="6.8" ry="6.8"/>
			<ellipse cx="169.3" cy="408" rx="6.8" ry="6.8"/>
			<ellipse cx="169.3" cy="440" rx="6.8" ry="6.8"/>
			<ellipse cx="169.3" cy="471.9" rx="6.8" ry="6.8"/>
			<ellipse cx="169.3" cy="503.8" rx="6.8" ry="6.8"/>
			<ellipse cx="169.3" cy="535.6" rx="6.8" ry="6.8"/>
			<ellipse cx="169.3" cy="567.5" rx="6.8" ry="6.8"/>
			<ellipse cx="169.3" cy="599.4" rx="6.8" ry="6.8"/>
			<ellipse cx="142" cy="376.1" rx="6.8" ry="6.8"/>
			<ellipse cx="142" cy="408" rx="6.8" ry="6.8"/>
			<ellipse cx="142" cy="440" rx="6.8" ry="6.8"/>
			<ellipse cx="142" cy="471.9" rx="6.8" ry="6.8"/>
			<ellipse cx="142" cy="503.8" rx="6.8" ry="6.8"/>
			<ellipse cx="142" cy="535.6" rx="6.8" ry="6.8"/>
			<ellipse cx="142" cy="567.5" rx="6.8" ry="6.8"/>
			<ellipse cx="142" cy="599.4" rx="6.8" ry="6.8"/>
			<ellipse cx="114.8" cy="376.1" rx="6.8" ry="6.8"/>
			<ellipse cx="114.8" cy="408" rx="6.8" ry="6.8"/>
			<ellipse cx="114.8" cy="440" rx="6.8" ry="6.8"/>
			<ellipse cx="114.8" cy="471.9" rx="6.8" ry="6.8"/>
			<ellipse cx="114.8" cy="503.8" rx="6.8" ry="6.8"/>
			<ellipse cx="114.8" cy="535.6" rx="6.8" ry="6.8"/>
			<ellipse cx="114.8" cy="567.5" rx="6.8" ry="6.8"/>
			<ellipse cx="114.8" cy="599.4" rx="6.8" ry="6.8"/>
		</g>
		<g id="XMLID_1_" class="st10">
			<g id="XMLID_2_">
				<g id="XMLID_33_">
					<path id="XMLID_38_" class="st11" d="M649.5-31.8c-1.8,0-3.3-1.5-3.3-3.3s1.5-3.3,3.3-3.3s3.3,1.5,3.3,3.3
						C652.8-33.2,651.3-31.8,649.5-31.8z"/>
					<path id="XMLID_37_" class="st11" d="M649.5,20c-1.8,0-3.3-1.5-3.3-3.3s1.5-3.3,3.3-3.3s3.3,1.5,3.3,3.3S651.3,20,649.5,20z"/>
					<path id="XMLID_36_" class="st11" d="M649.5,71.8c-1.8,0-3.3-1.5-3.3-3.3s1.5-3.3,3.3-3.3s3.3,1.5,3.3,3.3
						S651.3,71.8,649.5,71.8z"/>
					<path id="XMLID_35_" class="st11" d="M649.5,123.5c-1.8,0-3.3-1.5-3.3-3.3s1.5-3.3,3.3-3.3s3.3,1.5,3.3,3.3
						S651.3,123.5,649.5,123.5z"/>
					<path id="XMLID_34_" class="st11" d="M649.5,175.3c-1.8,0-3.3-1.5-3.3-3.3s1.5-3.3,3.3-3.3s3.3,1.5,3.3,3.3
						S651.3,175.3,649.5,175.3z"/>
				</g>
				<g id="XMLID_27_">
					<path id="XMLID_32_" class="st11" d="M603-31.8c-1.8,0-3.3-1.5-3.3-3.3s1.5-3.3,3.3-3.3s3.3,1.5,3.3,3.3
						C606.4-33.2,604.9-31.8,603-31.8z"/>
					<path id="XMLID_31_" class="st11" d="M603,20c-1.8,0-3.3-1.5-3.3-3.3s1.5-3.3,3.3-3.3s3.3,1.5,3.3,3.3
						C606.4,18.5,604.9,20,603,20z"/>
					<path id="XMLID_30_" class="st11" d="M603,71.8c-1.8,0-3.3-1.5-3.3-3.3s1.5-3.3,3.3-3.3s3.3,1.5,3.3,3.3
						C606.4,70.3,604.9,71.8,603,71.8z"/>
					<path id="XMLID_29_" class="st11" d="M603,123.5c-1.8,0-3.3-1.5-3.3-3.3s1.5-3.3,3.3-3.3s3.3,1.5,3.3,3.3
						C606.4,122,604.9,123.5,603,123.5z"/>
					<path id="XMLID_28_" class="st11" d="M603,175.3c-1.8,0-3.3-1.5-3.3-3.3s1.5-3.3,3.3-3.3s3.3,1.5,3.3,3.3
						C606.4,173.8,604.9,175.3,603,175.3z"/>
				</g>
				<g id="XMLID_21_">
					<path id="XMLID_26_" class="st11" d="M556.6-31.8c-1.8,0-3.3-1.5-3.3-3.3s1.5-3.3,3.3-3.3s3.3,1.5,3.3,3.3
						S558.4-31.8,556.6-31.8z"/>
					<ellipse id="XMLID_25_" class="st11" cx="556.6" cy="16.7" rx="3.3" ry="3.3"/>
					<ellipse id="XMLID_24_" class="st11" cx="556.6" cy="68.4" rx="3.3" ry="3.3"/>
					<path id="XMLID_23_" class="st11" d="M556.6,123.5c-1.8,0-3.3-1.5-3.3-3.3s1.5-3.3,3.3-3.3s3.3,1.5,3.3,3.3
						S558.4,123.5,556.6,123.5z"/>
					<path id="XMLID_22_" class="st11" d="M556.6,175.3c-1.8,0-3.3-1.5-3.3-3.3s1.5-3.3,3.3-3.3s3.3,1.5,3.3,3.3
						S558.4,175.3,556.6,175.3z"/>
				</g>
				<g id="XMLID_15_">
					<path id="XMLID_20_" class="st11" d="M510.2-31.8c-1.8,0-3.3-1.5-3.3-3.3s1.5-3.3,3.3-3.3s3.3,1.5,3.3,3.3S512-31.8,510.2-31.8
						z"/>
					<ellipse id="XMLID_19_" class="st11" cx="510.2" cy="16.7" rx="3.3" ry="3.3"/>
					<ellipse id="XMLID_18_" class="st11" cx="510.2" cy="68.4" rx="3.3" ry="3.3"/>
					<path id="XMLID_17_" class="st11" d="M510.2,123.5c-1.8,0-3.3-1.5-3.3-3.3s1.5-3.3,3.3-3.3s3.3,1.5,3.3,3.3
						S512,123.5,510.2,123.5z"/>
					<path id="XMLID_16_" class="st11" d="M510.2,175.3c-1.8,0-3.3-1.5-3.3-3.3s1.5-3.3,3.3-3.3s3.3,1.5,3.3,3.3
						S512,175.3,510.2,175.3z"/>
				</g>
				<g id="XMLID_9_">
					<path id="XMLID_14_" class="st11" d="M463.7-31.8c-1.8,0-3.3-1.5-3.3-3.3s1.5-3.3,3.3-3.3s3.3,1.5,3.3,3.3
						C467-33.2,465.6-31.8,463.7-31.8z"/>
					<ellipse id="XMLID_13_" class="st11" cx="463.7" cy="16.7" rx="3.3" ry="3.3"/>
					<ellipse id="XMLID_12_" class="st11" cx="463.7" cy="68.4" rx="3.3" ry="3.3"/>
					<path id="XMLID_11_" class="st11" d="M463.7,123.5c-1.8,0-3.3-1.5-3.3-3.3s1.5-3.3,3.3-3.3s3.3,1.5,3.3,3.3
						S465.6,123.5,463.7,123.5z"/>
					<path id="XMLID_10_" class="st11" d="M463.7,175.3c-1.8,0-3.3-1.5-3.3-3.3s1.5-3.3,3.3-3.3s3.3,1.5,3.3,3.3
						S465.6,175.3,463.7,175.3z"/>
				</g>
				<g id="XMLID_3_">
					<path id="XMLID_8_" class="st11" d="M417.3-31.8c-1.8,0-3.3-1.5-3.3-3.3s1.5-3.3,3.3-3.3s3.3,1.5,3.3,3.3
						C420.6-33.2,419.1-31.8,417.3-31.8z"/>
					<path id="XMLID_7_" class="st11" d="M417.3,20c-1.8,0-3.3-1.5-3.3-3.3s1.5-3.3,3.3-3.3s3.3,1.5,3.3,3.3
						C420.6,18.5,419.1,20,417.3,20z"/>
					<path id="XMLID_6_" class="st11" d="M417.3,71.8c-1.8,0-3.3-1.5-3.3-3.3s1.5-3.3,3.3-3.3s3.3,1.5,3.3,3.3
						C420.6,70.3,419.1,71.8,417.3,71.8z"/>
					<path id="XMLID_5_" class="st11" d="M417.3,123.5c-1.8,0-3.3-1.5-3.3-3.3s1.5-3.3,3.3-3.3s3.3,1.5,3.3,3.3
						C420.6,122,419.1,123.5,417.3,123.5z"/>
					<path id="XMLID_4_" class="st11" d="M417.3,175.3c-1.8,0-3.3-1.5-3.3-3.3s1.5-3.3,3.3-3.3s3.3,1.5,3.3,3.3
						C420.6,173.8,419.1,175.3,417.3,175.3z"/>
				</g>
			</g>
		</g>
		<polygon class="st12" points="139.7,963.3 123.9,929.5 157.9,913.8 173.7,947.6 		"/>
		<ellipse class="st13" cx="130.4" cy="265.1" rx="17.2" ry="17.2"/>
		<ellipse class="st13" cx="103.2" cy="1233.9" rx="17.2" ry="17.2"/>
		<ellipse class="st14" cx="53.9" cy="948.3" rx="159.4" ry="158.7"/>
		<ellipse class="st14" cx="1541" cy="1534" rx="159.4" ry="158.7"/>
		<ellipse class="st14" cx="1381.6" cy="-93.6" rx="159.4" ry="158.7"/>
		<ellipse class="st14" cx="352" cy="776.2" rx="67.6" ry="67.3"/>
		<polygon class="st5" points="1199.2,353.6 1127.6,372.7 1180,424.8 		"/>
		<polygon class="st5" points="1068.2,813.4 996.7,832.5 1049,884.6 		"/>
		<polygon class="st5" points="2362.9,41.6 2291.3,60.7 2343.7,112.9 		"/>
		<polygon class="st5" points="2325.5,1317 2254,1336.1 2306.4,1388.2 		"/>
		<polygon class="st6" points="857.8,220.1 868.8,243.8 845,254.8 834,231.1 		"/>
		<polygon class="st6" points="480.5,332.8 491.6,356.5 467.8,367.5 456.8,343.8 		"/>
		<ellipse class="st7" cx="852.9" cy="503.3" rx="14.3" ry="14.2"/>
		<polygon class="st12" points="757.9,787.1 742.1,753.3 776,737.5 791.8,771.4 		"/>
		<polygon class="st12" points="433.2,1037.7 417.4,1003.9 451.4,988.1 467.2,1022 		"/>
		<polygon class="st12" points="1799.2,89.9 1783.3,56.1 1817.3,40.3 1833.1,74.2 		"/>
		<polygon class="st12" points="911.4,1217.3 895.6,1183.4 929.6,1167.7 945.4,1201.6 		"/>
		<polygon class="st12" points="1728.4,1012.9 1712.6,979.1 1746.6,963.3 1762.4,997.2 		"/>
		<ellipse class="st13" cx="748.6" cy="88.9" rx="17.2" ry="17.2"/>
		<ellipse class="st13" cx="721.3" cy="1057.7" rx="17.2" ry="17.2"/>
		<ellipse class="st14" cx="920.5" cy="1420.5" rx="43.4" ry="43.2"/>
		<polygon class="st5" points="1948.3,370.7 1876.8,389.8 1929.1,442 		"/>
		<polygon class="st5" points="270.5,1323.6 199,1342.7 251.4,1394.8 		"/>
		<polygon class="st6" points="1606.9,237.2 1617.9,260.9 1594.1,272 1583.1,248.2 		"/>
		<polygon class="st6" points="1832.1,676.3 1843.1,700 1819.3,711.1 1808.3,687.4 		"/>
		<ellipse class="st7" cx="1602" cy="520.5" rx="14.3" ry="14.2"/>
		<polygon class="st12" points="1507,804.3 1491.2,770.5 1525.2,754.7 1541,788.6 		"/>
		<ellipse class="st13" cx="1497.7" cy="106.1" rx="17.2" ry="17.2"/>
		<ellipse class="st13" cx="1470.4" cy="1074.9" rx="34.3" ry="34.1"/>
		<ellipse class="st13" cx="2184.4" cy="367.5" rx="34.3" ry="34.1"/>
		<ellipse class="st13" cx="288.8" cy="1143.1" rx="34.3" ry="34.1"/>
		<ellipse class="st13" cx="1401.9" cy="503.3" rx="34.3" ry="34.1"/>
		<ellipse class="st13" cx="1635.2" cy="1297.8" rx="17.2" ry="17.2"/>
		<ellipse class="st13" cx="2053.9" cy="1092.1" rx="17.2" ry="17.2"/>
		<ellipse class="st14" cx="936.4" cy="32.2" rx="67.6" ry="67.3"/>
		<ellipse class="st14" cx="1168.9" cy="617.2" rx="36.1" ry="36"/>
		<ellipse class="st14" cx="1737.5" cy="350.1" rx="36.1" ry="36"/>
		<ellipse class="st14" cx="1843.1" cy="1143.1" rx="36.1" ry="36"/>
		<ellipse class="st14" cx="1305.3" cy="850.4" rx="25.3" ry="25.2"/>
		<ellipse class="st14" cx="678.1" cy="392.7" rx="25.3" ry="25.2"/>
		<ellipse class="st14" cx="2481.4" cy="88.9" rx="25.3" ry="25.2"/>
		<ellipse class="st14" cx="550.8" cy="1175.3" rx="25.3" ry="25.2"/>
	</g>
	<g class="st4">
		<polygon class="st5" points="1986.3,910.7 2057.9,891.6 2005.5,839.4 		"/>
		<polygon class="st6" points="2237.8,1044.2 2226.7,1020.5 2250.5,1009.5 2261.6,1033.2 		"/>
		<ellipse class="st7" cx="2332.6" cy="761" rx="14.3" ry="14.2"/>
		<g class="st9">
			<ellipse cx="1933.7" cy="115.4" rx="6.8" ry="6.8"/>
			<ellipse cx="1965.6" cy="115.4" rx="6.8" ry="6.8"/>
			<ellipse cx="1997.5" cy="115.4" rx="6.8" ry="6.8"/>
			<ellipse cx="2029.4" cy="115.4" rx="6.8" ry="6.8"/>
			<ellipse cx="2061.3" cy="115.4" rx="6.8" ry="6.8"/>
			<ellipse cx="2093.2" cy="115.4" rx="6.8" ry="6.8"/>
			<ellipse cx="2125.1" cy="115.4" rx="6.8" ry="6.8"/>
			<ellipse cx="2157" cy="115.4" rx="6.8" ry="6.8"/>
			<ellipse cx="1933.7" cy="142.7" rx="6.8" ry="6.8"/>
			<ellipse cx="1965.6" cy="142.7" rx="6.8" ry="6.8"/>
			<ellipse cx="1997.5" cy="142.7" rx="6.8" ry="6.8"/>
			<ellipse cx="2029.4" cy="142.7" rx="6.8" ry="6.8"/>
			<ellipse cx="2061.3" cy="142.7" rx="6.8" ry="6.8"/>
			<ellipse cx="2093.2" cy="142.7" rx="6.8" ry="6.8"/>
			<ellipse cx="2125.1" cy="142.7" rx="6.8" ry="6.8"/>
			<ellipse cx="2157" cy="142.7" rx="6.8" ry="6.8"/>
			<ellipse cx="1933.7" cy="169.9" rx="6.8" ry="6.8"/>
			<ellipse cx="1965.6" cy="169.9" rx="6.8" ry="6.8"/>
			<ellipse cx="1997.5" cy="169.9" rx="6.8" ry="6.8"/>
			<ellipse cx="2029.4" cy="169.9" rx="6.8" ry="6.8"/>
			<ellipse cx="2061.3" cy="169.9" rx="6.8" ry="6.8"/>
			<ellipse cx="2093.2" cy="169.9" rx="6.8" ry="6.8"/>
			<ellipse cx="2125.1" cy="169.9" rx="6.8" ry="6.8"/>
			<ellipse cx="2157" cy="169.9" rx="6.8" ry="6.8"/>
		</g>
		<g class="st15">
			<ellipse cx="1443" cy="883.8" rx="6.8" ry="6.8"/>
			<ellipse cx="1474.9" cy="883.8" rx="6.8" ry="6.8"/>
			<ellipse cx="1506.8" cy="883.8" rx="6.8" ry="6.8"/>
			<ellipse cx="1538.7" cy="883.8" rx="6.8" ry="6.8"/>
			<ellipse cx="1570.6" cy="883.8" rx="6.8" ry="6.8"/>
			<ellipse cx="1602.5" cy="883.8" rx="6.8" ry="6.8"/>
			<ellipse cx="1634.4" cy="883.8" rx="6.8" ry="6.8"/>
			<ellipse cx="1666.3" cy="883.8" rx="6.8" ry="6.8"/>
			<ellipse cx="1443" cy="911" rx="6.8" ry="6.8"/>
			<ellipse cx="1474.9" cy="911" rx="6.8" ry="6.8"/>
			<ellipse cx="1506.8" cy="911" rx="6.8" ry="6.8"/>
			<ellipse cx="1538.7" cy="911" rx="6.8" ry="6.8"/>
			<ellipse cx="1570.6" cy="911" rx="6.8" ry="6.8"/>
			<ellipse cx="1602.5" cy="911" rx="6.8" ry="6.8"/>
			<ellipse cx="1634.4" cy="911" rx="6.8" ry="6.8"/>
			<ellipse cx="1666.3" cy="911" rx="6.8" ry="6.8"/>
			<ellipse cx="1443" cy="938.2" rx="6.8" ry="6.8"/>
			<ellipse cx="1474.9" cy="938.2" rx="6.8" ry="6.8"/>
			<ellipse cx="1506.8" cy="938.2" rx="6.8" ry="6.8"/>
			<ellipse cx="1538.7" cy="938.2" rx="6.8" ry="6.8"/>
			<ellipse cx="1570.6" cy="938.2" rx="6.8" ry="6.8"/>
			<ellipse cx="1602.5" cy="938.2" rx="6.8" ry="6.8"/>
			<ellipse cx="1634.4" cy="938.2" rx="6.8" ry="6.8"/>
			<ellipse cx="1666.3" cy="938.2" rx="6.8" ry="6.8"/>
		</g>
		<g class="st15">
			<ellipse cx="722.3" cy="606.3" rx="6.8" ry="6.8"/>
			<ellipse cx="754.2" cy="606.3" rx="6.8" ry="6.8"/>
			<ellipse cx="786.1" cy="606.3" rx="6.8" ry="6.8"/>
			<ellipse cx="818" cy="606.3" rx="6.8" ry="6.8"/>
			<ellipse cx="849.9" cy="606.3" rx="6.8" ry="6.8"/>
			<ellipse cx="881.8" cy="606.3" rx="6.8" ry="6.8"/>
			<ellipse cx="913.7" cy="606.3" rx="6.8" ry="6.8"/>
			<ellipse cx="945.6" cy="606.3" rx="6.8" ry="6.8"/>
			<ellipse cx="722.3" cy="633.5" rx="6.8" ry="6.8"/>
			<ellipse cx="754.2" cy="633.5" rx="6.8" ry="6.8"/>
			<ellipse cx="786.1" cy="633.5" rx="6.8" ry="6.8"/>
			<ellipse cx="818" cy="633.5" rx="6.8" ry="6.8"/>
			<ellipse cx="849.9" cy="633.5" rx="6.8" ry="6.8"/>
			<ellipse cx="881.8" cy="633.5" rx="6.8" ry="6.8"/>
			<ellipse cx="913.7" cy="633.5" rx="6.8" ry="6.8"/>
			<ellipse cx="945.6" cy="633.5" rx="6.8" ry="6.8"/>
			<ellipse cx="722.3" cy="660.7" rx="6.8" ry="6.8"/>
			<ellipse cx="754.2" cy="660.7" rx="6.8" ry="6.8"/>
			<ellipse cx="786.1" cy="660.7" rx="6.8" ry="6.8"/>
			<ellipse cx="818" cy="660.7" rx="6.8" ry="6.8"/>
			<ellipse cx="849.9" cy="660.7" rx="6.8" ry="6.8"/>
			<ellipse cx="881.8" cy="660.7" rx="6.8" ry="6.8"/>
			<ellipse cx="913.7" cy="660.7" rx="6.8" ry="6.8"/>
			<ellipse cx="945.6" cy="660.7" rx="6.8" ry="6.8"/>
		</g>
		<g id="XMLID_00000065788545372714009570000002938763211864857767_" class="st9">
			<g id="XMLID_00000122701033182120687060000002972854204407169427_">
				<g id="XMLID_00000069382263867926228370000000474840397001704089_">
					<path id="XMLID_00000152966757667644781000000005417615282758731923_" class="st11" d="M1917.9,1472.2c1.8,0,3.3,1.5,3.3,3.3
						s-1.5,3.3-3.3,3.3s-3.3-1.5-3.3-3.3S1916.1,1472.2,1917.9,1472.2z"/>
					<path id="XMLID_00000132791875717217806560000009593601278619591856_" class="st11" d="M1917.9,1420.5c1.8,0,3.3,1.5,3.3,3.3
						s-1.5,3.3-3.3,3.3s-3.3-1.5-3.3-3.3S1916.1,1420.5,1917.9,1420.5z"/>
					<path id="XMLID_00000134245155015640628170000004270677223420366465_" class="st11" d="M1917.9,1368.7c1.8,0,3.3,1.5,3.3,3.3
						s-1.5,3.3-3.3,3.3s-3.3-1.5-3.3-3.3S1916.1,1368.7,1917.9,1368.7z"/>
					<path id="XMLID_00000046321254047850509790000010423195169453882546_" class="st11" d="M1917.9,1317c1.8,0,3.3,1.5,3.3,3.3
						s-1.5,3.3-3.3,3.3s-3.3-1.5-3.3-3.3S1916.1,1317,1917.9,1317z"/>
					<path id="XMLID_00000111879652442083791520000007119915145472565407_" class="st11" d="M1917.9,1265.2c1.8,0,3.3,1.5,3.3,3.3
						s-1.5,3.3-3.3,3.3s-3.3-1.5-3.3-3.3S1916.1,1265.2,1917.9,1265.2z"/>
				</g>
				<g id="XMLID_00000092430747880524251500000003074348541519595674_">
					<path id="XMLID_00000152226227261147685810000005094302919924487067_" class="st11" d="M1964.3,1472.2c1.8,0,3.3,1.5,3.3,3.3
						s-1.5,3.3-3.3,3.3s-3.3-1.5-3.3-3.3S1962.5,1472.2,1964.3,1472.2z"/>
					<path id="XMLID_00000122710263776356176900000008810298272962532025_" class="st11" d="M1964.3,1420.5c1.8,0,3.3,1.5,3.3,3.3
						s-1.5,3.3-3.3,3.3s-3.3-1.5-3.3-3.3S1962.5,1420.5,1964.3,1420.5z"/>
					<path id="XMLID_00000001660576701645641820000014227805538718788263_" class="st11" d="M1964.3,1368.7c1.8,0,3.3,1.5,3.3,3.3
						s-1.5,3.3-3.3,3.3s-3.3-1.5-3.3-3.3S1962.5,1368.7,1964.3,1368.7z"/>
					<path id="XMLID_00000054231434257836898150000016672407198703242679_" class="st11" d="M1964.3,1317c1.8,0,3.3,1.5,3.3,3.3
						s-1.5,3.3-3.3,3.3s-3.3-1.5-3.3-3.3S1962.5,1317,1964.3,1317z"/>
					<path id="XMLID_00000059291607015064637780000000084531781004366478_" class="st11" d="M1964.3,1265.2c1.8,0,3.3,1.5,3.3,3.3
						s-1.5,3.3-3.3,3.3s-3.3-1.5-3.3-3.3S1962.5,1265.2,1964.3,1265.2z"/>
				</g>
				<g id="XMLID_00000066495773090938077290000017945471651928890008_">
					<path id="XMLID_00000023240341712411727070000005673961953054339737_" class="st11" d="M2010.8,1472.2c1.8,0,3.3,1.5,3.3,3.3
						s-1.5,3.3-3.3,3.3s-3.3-1.5-3.3-3.3S2008.9,1472.2,2010.8,1472.2z"/>
					
						<ellipse id="XMLID_00000117662154544187439100000002801310269159330702_" class="st11" cx="2010.8" cy="1423.8" rx="3.3" ry="3.3"/>
					
						<ellipse id="XMLID_00000146481285261759563670000003617077805397750430_" class="st11" cx="2010.8" cy="1372" rx="3.3" ry="3.3"/>
					<path id="XMLID_00000159434304726114781310000009510610539723757205_" class="st11" d="M2010.8,1317c1.8,0,3.3,1.5,3.3,3.3
						s-1.5,3.3-3.3,3.3s-3.3-1.5-3.3-3.3S2008.9,1317,2010.8,1317z"/>
					<path id="XMLID_00000051385241337451149140000002146500411436500406_" class="st11" d="M2010.8,1265.2c1.8,0,3.3,1.5,3.3,3.3
						s-1.5,3.3-3.3,3.3s-3.3-1.5-3.3-3.3S2008.9,1265.2,2010.8,1265.2z"/>
				</g>
				<g id="XMLID_00000127013038375799325400000016094635515600652218_">
					<path id="XMLID_00000160173640389965746200000002019472476122301630_" class="st11" d="M2057.2,1472.2c1.8,0,3.3,1.5,3.3,3.3
						s-1.5,3.3-3.3,3.3s-3.3-1.5-3.3-3.3S2055.4,1472.2,2057.2,1472.2z"/>
					
						<ellipse id="XMLID_00000049196876078034516300000017706073896073815212_" class="st11" cx="2057.2" cy="1423.8" rx="3.3" ry="3.3"/>
					
						<ellipse id="XMLID_00000002367272030650680000000011421315721128964262_" class="st11" cx="2057.2" cy="1372" rx="3.3" ry="3.3"/>
					<path id="XMLID_00000125602895231535284300000015898303339289729676_" class="st11" d="M2057.2,1317c1.8,0,3.3,1.5,3.3,3.3
						s-1.5,3.3-3.3,3.3s-3.3-1.5-3.3-3.3S2055.4,1317,2057.2,1317z"/>
					<path id="XMLID_00000096781925865139328340000004996918976841349025_" class="st11" d="M2057.2,1265.2c1.8,0,3.3,1.5,3.3,3.3
						s-1.5,3.3-3.3,3.3s-3.3-1.5-3.3-3.3S2055.4,1265.2,2057.2,1265.2z"/>
				</g>
				<g id="XMLID_00000142149980747408097700000001334777384437328261_">
					<path id="XMLID_00000160189000256972527210000005397526028648995245_" class="st11" d="M2103.7,1472.2c1.8,0,3.3,1.5,3.3,3.3
						s-1.5,3.3-3.3,3.3s-3.3-1.5-3.3-3.3C2100.3,1473.7,2101.8,1472.2,2103.7,1472.2z"/>
					
						<ellipse id="XMLID_00000140730489103151360880000002799701003989581759_" class="st11" cx="2103.7" cy="1423.8" rx="3.3" ry="3.3"/>
					
						<ellipse id="XMLID_00000147221444059499095850000014194604885725614465_" class="st11" cx="2103.7" cy="1372" rx="3.3" ry="3.3"/>
					<path id="XMLID_00000013164746150544851470000005455660163425448375_" class="st11" d="M2103.7,1317c1.8,0,3.3,1.5,3.3,3.3
						s-1.5,3.3-3.3,3.3s-3.3-1.5-3.3-3.3S2101.8,1317,2103.7,1317z"/>
					<path id="XMLID_00000054259363160103648870000016082968798161634182_" class="st11" d="M2103.7,1265.2c1.8,0,3.3,1.5,3.3,3.3
						s-1.5,3.3-3.3,3.3s-3.3-1.5-3.3-3.3C2100.3,1266.7,2101.8,1265.2,2103.7,1265.2z"/>
				</g>
				<g id="XMLID_00000163062212892380241130000001049799071473190584_">
					<path id="XMLID_00000166649171246982602250000012993715830956710058_" class="st11" d="M2150.1,1472.2c1.8,0,3.3,1.5,3.3,3.3
						s-1.5,3.3-3.3,3.3s-3.3-1.5-3.3-3.3S2148.3,1472.2,2150.1,1472.2z"/>
					<path id="XMLID_00000118377133877225688060000005063076923376803217_" class="st11" d="M2150.1,1420.5c1.8,0,3.3,1.5,3.3,3.3
						s-1.5,3.3-3.3,3.3s-3.3-1.5-3.3-3.3S2148.3,1420.5,2150.1,1420.5z"/>
					<path id="XMLID_00000053513265730756565570000013870498847800003747_" class="st11" d="M2150.1,1368.7c1.8,0,3.3,1.5,3.3,3.3
						s-1.5,3.3-3.3,3.3s-3.3-1.5-3.3-3.3S2148.3,1368.7,2150.1,1368.7z"/>
					<path id="XMLID_00000097479771545166040150000011498090392359944580_" class="st11" d="M2150.1,1317c1.8,0,3.3,1.5,3.3,3.3
						s-1.5,3.3-3.3,3.3s-3.3-1.5-3.3-3.3S2148.3,1317,2150.1,1317z"/>
					<path id="XMLID_00000049218858974864217180000010585175324107945663_" class="st11" d="M2150.1,1265.2c1.8,0,3.3,1.5,3.3,3.3
						s-1.5,3.3-3.3,3.3s-3.3-1.5-3.3-3.3S2148.3,1265.2,2150.1,1265.2z"/>
				</g>
			</g>
		</g>
		<g id="XMLID_00000001659011975686425920000007383551892818144426_" class="st10">
			<g id="XMLID_00000161619117145935012010000014237962075488322459_">
				<g id="XMLID_00000023259361603019177740000003997974159593317558_">
					<path id="XMLID_00000117647182574069009940000000008823332132891546_" class="st11" d="M2590.1,1032.2c-1.8,0-3.3,1.5-3.3,3.3
						s1.5,3.3,3.3,3.3s3.3-1.5,3.3-3.3C2593.4,1033.7,2591.9,1032.2,2590.1,1032.2z"/>
					<path id="XMLID_00000049914839888319539280000011381533312542112141_" class="st11" d="M2590.1,980.5c-1.8,0-3.3,1.5-3.3,3.3
						s1.5,3.3,3.3,3.3s3.3-1.5,3.3-3.3C2593.4,982,2591.9,980.5,2590.1,980.5z"/>
					<path id="XMLID_00000137093419295782180320000005530369378592153507_" class="st11" d="M2590.1,928.7c-1.8,0-3.3,1.5-3.3,3.3
						s1.5,3.3,3.3,3.3s3.3-1.5,3.3-3.3C2593.4,930.2,2591.9,928.7,2590.1,928.7z"/>
					<path id="XMLID_00000060003284842235460170000017655964308107236752_" class="st11" d="M2590.1,877c-1.8,0-3.3,1.5-3.3,3.3
						s1.5,3.3,3.3,3.3s3.3-1.5,3.3-3.3S2591.9,877,2590.1,877z"/>
					<path id="XMLID_00000150089905495005991830000000166806898881689778_" class="st11" d="M2590.1,825.2c-1.8,0-3.3,1.5-3.3,3.3
						s1.5,3.3,3.3,3.3s3.3-1.5,3.3-3.3C2593.4,826.7,2591.9,825.2,2590.1,825.2z"/>
				</g>
				<g id="XMLID_00000130605831629318159960000011644356553870072216_">
					<path id="XMLID_00000064346303639314210850000006011474765398210996_" class="st11" d="M2543.7,1032.2c-1.8,0-3.3,1.5-3.3,3.3
						s1.5,3.3,3.3,3.3s3.3-1.5,3.3-3.3S2545.5,1032.2,2543.7,1032.2z"/>
					<path id="XMLID_00000141419121323530262760000014021195465394740355_" class="st11" d="M2543.7,980.5c-1.8,0-3.3,1.5-3.3,3.3
						s1.5,3.3,3.3,3.3s3.3-1.5,3.3-3.3S2545.5,980.5,2543.7,980.5z"/>
					<path id="XMLID_00000127747884038809608320000005765253754906240954_" class="st11" d="M2543.7,928.7c-1.8,0-3.3,1.5-3.3,3.3
						s1.5,3.3,3.3,3.3s3.3-1.5,3.3-3.3S2545.5,928.7,2543.7,928.7z"/>
					<path id="XMLID_00000101796149527117821410000012958507892044135573_" class="st11" d="M2543.7,877c-1.8,0-3.3,1.5-3.3,3.3
						s1.5,3.3,3.3,3.3s3.3-1.5,3.3-3.3S2545.5,877,2543.7,877z"/>
					<path id="XMLID_00000103249699298911615440000014082322363905763245_" class="st11" d="M2543.7,825.2c-1.8,0-3.3,1.5-3.3,3.3
						s1.5,3.3,3.3,3.3s3.3-1.5,3.3-3.3S2545.5,825.2,2543.7,825.2z"/>
				</g>
				<g id="XMLID_00000018232645231110815970000007773929182635208869_">
					<path id="XMLID_00000167360795659515389120000013843311508457774527_" class="st11" d="M2497.2,1032.2c-1.8,0-3.3,1.5-3.3,3.3
						s1.5,3.3,3.3,3.3s3.3-1.5,3.3-3.3S2499.1,1032.2,2497.2,1032.2z"/>
					
						<ellipse id="XMLID_00000114070532851779425860000012676842906681740721_" class="st11" cx="2497.2" cy="983.8" rx="3.3" ry="3.3"/>
					
						<ellipse id="XMLID_00000048470245947967759170000005830519799302405563_" class="st11" cx="2497.2" cy="932" rx="3.3" ry="3.3"/>
					<path id="XMLID_00000152233053160793061730000014515727797147752856_" class="st11" d="M2497.2,877c-1.8,0-3.3,1.5-3.3,3.3
						s1.5,3.3,3.3,3.3s3.3-1.5,3.3-3.3S2499.1,877,2497.2,877z"/>
					<path id="XMLID_00000129887632755058345930000015352521757150728626_" class="st11" d="M2497.2,825.2c-1.8,0-3.3,1.5-3.3,3.3
						s1.5,3.3,3.3,3.3s3.3-1.5,3.3-3.3S2499.1,825.2,2497.2,825.2z"/>
				</g>
				<g id="XMLID_00000051350409689310878660000004601124830782288270_">
					<path id="XMLID_00000175305410460809469020000012636853543287803042_" class="st11" d="M2450.8,1032.2c-1.8,0-3.3,1.5-3.3,3.3
						s1.5,3.3,3.3,3.3s3.3-1.5,3.3-3.3S2452.6,1032.2,2450.8,1032.2z"/>
					
						<ellipse id="XMLID_00000115512061272158615850000002763068469105374592_" class="st11" cx="2450.8" cy="983.8" rx="3.3" ry="3.3"/>
					
						<ellipse id="XMLID_00000072246243095008526770000001399931879128095394_" class="st11" cx="2450.8" cy="932" rx="3.3" ry="3.3"/>
					<path id="XMLID_00000161615059985026668210000002039982657099435685_" class="st11" d="M2450.8,877c-1.8,0-3.3,1.5-3.3,3.3
						s1.5,3.3,3.3,3.3s3.3-1.5,3.3-3.3S2452.6,877,2450.8,877z"/>
					<path id="XMLID_00000082331536207076509420000008149107973643900592_" class="st11" d="M2450.8,825.2c-1.8,0-3.3,1.5-3.3,3.3
						s1.5,3.3,3.3,3.3s3.3-1.5,3.3-3.3S2452.6,825.2,2450.8,825.2z"/>
				</g>
				<g id="XMLID_00000106845277925505932410000002024008202485130681_">
					<path id="XMLID_00000152223100583471640750000000728380422237179809_" class="st11" d="M2404.3,1032.2c-1.8,0-3.3,1.5-3.3,3.3
						s1.5,3.3,3.3,3.3s3.3-1.5,3.3-3.3C2407.7,1033.7,2406.2,1032.2,2404.3,1032.2z"/>
					
						<ellipse id="XMLID_00000176000763536959870600000000946086810337073828_" class="st11" cx="2404.3" cy="983.8" rx="3.3" ry="3.3"/>
					
						<ellipse id="XMLID_00000109028010386644700120000014895045627262105512_" class="st11" cx="2404.3" cy="932" rx="3.3" ry="3.3"/>
					<path id="XMLID_00000116211996788192831780000012616860920095024285_" class="st11" d="M2404.3,877c-1.8,0-3.3,1.5-3.3,3.3
						s1.5,3.3,3.3,3.3s3.3-1.5,3.3-3.3S2406.2,877,2404.3,877z"/>
					<path id="XMLID_00000060745900439987266300000011247400947638771631_" class="st11" d="M2404.3,825.2c-1.8,0-3.3,1.5-3.3,3.3
						s1.5,3.3,3.3,3.3s3.3-1.5,3.3-3.3C2407.7,826.7,2406.2,825.2,2404.3,825.2z"/>
				</g>
				<g id="XMLID_00000166671149035611433610000005557662078733680300_">
					<path id="XMLID_00000053542276267485753220000006952877896817512834_" class="st11" d="M2357.9,1032.2c-1.8,0-3.3,1.5-3.3,3.3
						s1.5,3.3,3.3,3.3s3.3-1.5,3.3-3.3S2359.7,1032.2,2357.9,1032.2z"/>
					<path id="XMLID_00000065775269815199240970000010922833755623333566_" class="st11" d="M2357.9,980.5c-1.8,0-3.3,1.5-3.3,3.3
						s1.5,3.3,3.3,3.3s3.3-1.5,3.3-3.3S2359.7,980.5,2357.9,980.5z"/>
					<path id="XMLID_00000118387425843304300560000004381546407460286367_" class="st11" d="M2357.9,928.7c-1.8,0-3.3,1.5-3.3,3.3
						s1.5,3.3,3.3,3.3s3.3-1.5,3.3-3.3S2359.7,928.7,2357.9,928.7z"/>
					<path id="XMLID_00000075851649967166703110000012213591394338279577_" class="st11" d="M2357.9,877c-1.8,0-3.3,1.5-3.3,3.3
						s1.5,3.3,3.3,3.3s3.3-1.5,3.3-3.3S2359.7,877,2357.9,877z"/>
					<path id="XMLID_00000084519368261187203260000009799991314596007837_" class="st11" d="M2357.9,825.2c-1.8,0-3.3,1.5-3.3,3.3
						s1.5,3.3,3.3,3.3s3.3-1.5,3.3-3.3S2359.7,825.2,2357.9,825.2z"/>
				</g>
			</g>
		</g>
		<g id="XMLID_00000054982076944384227900000015177497158692925336_" class="st10">
			<g id="XMLID_00000173136773024977322850000016085063881081308598_">
				<g id="XMLID_00000119799894620896425470000017766803302718931643_">
					<path id="XMLID_00000016771142277160290290000014475940411067412658_" class="st11" d="M1483.7,383.7c-1.8,0-3.3,1.5-3.3,3.3
						s1.5,3.3,3.3,3.3s3.3-1.5,3.3-3.3C1487.1,385.2,1485.6,383.7,1483.7,383.7z"/>
					<path id="XMLID_00000039113433165956017560000005372326905263551400_" class="st11" d="M1483.7,332c-1.8,0-3.3,1.5-3.3,3.3
						s1.5,3.3,3.3,3.3s3.3-1.5,3.3-3.3C1487.1,333.4,1485.6,332,1483.7,332z"/>
					<path id="XMLID_00000083782186624677451430000007855274239906544010_" class="st11" d="M1483.7,280.2c-1.8,0-3.3,1.5-3.3,3.3
						s1.5,3.3,3.3,3.3s3.3-1.5,3.3-3.3C1487.1,281.7,1485.6,280.2,1483.7,280.2z"/>
					<path id="XMLID_00000021104316137656525000000007170327521885896365_" class="st11" d="M1483.7,228.5c-1.8,0-3.3,1.5-3.3,3.3
						s1.5,3.3,3.3,3.3s3.3-1.5,3.3-3.3C1487.1,229.9,1485.6,228.5,1483.7,228.5z"/>
					<path id="XMLID_00000151516870327099009800000003533320820037184688_" class="st11" d="M1483.7,176.7c-1.8,0-3.3,1.5-3.3,3.3
						s1.5,3.3,3.3,3.3s3.3-1.5,3.3-3.3C1487.1,178.2,1485.6,176.7,1483.7,176.7z"/>
				</g>
				<g id="XMLID_00000056420647627317140000000016900562496614693793_">
					<path id="XMLID_00000005945732742096381570000013709816962529307060_" class="st11" d="M1437.3,383.7c-1.8,0-3.3,1.5-3.3,3.3
						s1.5,3.3,3.3,3.3s3.3-1.5,3.3-3.3S1439.1,383.7,1437.3,383.7z"/>
					<path id="XMLID_00000063614312268355657950000016195725545456113558_" class="st11" d="M1437.3,332c-1.8,0-3.3,1.5-3.3,3.3
						s1.5,3.3,3.3,3.3s3.3-1.5,3.3-3.3C1440.6,333.4,1439.1,332,1437.3,332z"/>
					<path id="XMLID_00000176029126108101289710000000537447446381122719_" class="st11" d="M1437.3,280.2c-1.8,0-3.3,1.5-3.3,3.3
						s1.5,3.3,3.3,3.3s3.3-1.5,3.3-3.3S1439.1,280.2,1437.3,280.2z"/>
					<path id="XMLID_00000070082596705431056190000002964098039668457130_" class="st11" d="M1437.3,228.5c-1.8,0-3.3,1.5-3.3,3.3
						s1.5,3.3,3.3,3.3s3.3-1.5,3.3-3.3S1439.1,228.5,1437.3,228.5z"/>
					<path id="XMLID_00000064350383269796448070000018326617193034168232_" class="st11" d="M1437.3,176.7c-1.8,0-3.3,1.5-3.3,3.3
						s1.5,3.3,3.3,3.3s3.3-1.5,3.3-3.3S1439.1,176.7,1437.3,176.7z"/>
				</g>
				<g id="XMLID_00000108285739902076050820000003588128561711121037_">
					<path id="XMLID_00000046330332346508039890000010664816527863505792_" class="st11" d="M1390.8,383.7c-1.8,0-3.3,1.5-3.3,3.3
						s1.5,3.3,3.3,3.3s3.3-1.5,3.3-3.3C1394.2,385.2,1392.7,383.7,1390.8,383.7z"/>
					
						<ellipse id="XMLID_00000110437126131476789620000009309573690892782735_" class="st11" cx="1390.8" cy="335.3" rx="3.3" ry="3.3"/>
					
						<ellipse id="XMLID_00000116200720365666230000000017418936916149870225_" class="st11" cx="1390.8" cy="283.5" rx="3.3" ry="3.3"/>
					<path id="XMLID_00000010287211408303180350000008971037386459574152_" class="st11" d="M1390.8,228.5c-1.8,0-3.3,1.5-3.3,3.3
						s1.5,3.3,3.3,3.3s3.3-1.5,3.3-3.3C1394.2,229.9,1392.7,228.5,1390.8,228.5z"/>
					<path id="XMLID_00000104698673019733963550000000190238165657282728_" class="st11" d="M1390.8,176.7c-1.8,0-3.3,1.5-3.3,3.3
						s1.5,3.3,3.3,3.3s3.3-1.5,3.3-3.3C1394.2,178.2,1392.7,176.7,1390.8,176.7z"/>
				</g>
				<g id="XMLID_00000026870633879252167810000014373279794001074336_">
					<path id="XMLID_00000075147769768159925140000004264928874314983858_" class="st11" d="M1344.4,383.7c-1.8,0-3.3,1.5-3.3,3.3
						s1.5,3.3,3.3,3.3s3.3-1.5,3.3-3.3S1346.2,383.7,1344.4,383.7z"/>
					
						<ellipse id="XMLID_00000008142601635516750940000017352580938308407441_" class="st11" cx="1344.4" cy="335.3" rx="3.3" ry="3.3"/>
					
						<ellipse id="XMLID_00000116237263571543675700000010031531654455653048_" class="st11" cx="1344.4" cy="283.5" rx="3.3" ry="3.3"/>
					<path id="XMLID_00000140735190300716781050000000656470224031887264_" class="st11" d="M1344.4,228.5c-1.8,0-3.3,1.5-3.3,3.3
						s1.5,3.3,3.3,3.3s3.3-1.5,3.3-3.3S1346.2,228.5,1344.4,228.5z"/>
					<path id="XMLID_00000052819288934047462600000017054513540051956377_" class="st11" d="M1344.4,176.7c-1.8,0-3.3,1.5-3.3,3.3
						s1.5,3.3,3.3,3.3s3.3-1.5,3.3-3.3S1346.2,176.7,1344.4,176.7z"/>
				</g>
				<g id="XMLID_00000108266767880542661440000012750795632811223216_">
					<path id="XMLID_00000100369994307265480170000013617686464516075961_" class="st11" d="M1298,383.7c-1.8,0-3.3,1.5-3.3,3.3
						s1.5,3.3,3.3,3.3s3.3-1.5,3.3-3.3S1299.8,383.7,1298,383.7z"/>
					
						<ellipse id="XMLID_00000036253521369145339250000001873030906883621007_" class="st11" cx="1298" cy="335.3" rx="3.3" ry="3.3"/>
					
						<ellipse id="XMLID_00000162342668319909575900000012770738023582932919_" class="st11" cx="1298" cy="283.5" rx="3.3" ry="3.3"/>
					<path id="XMLID_00000165233838648801621090000004238875432939826063_" class="st11" d="M1298,228.5c-1.8,0-3.3,1.5-3.3,3.3
						s1.5,3.3,3.3,3.3s3.3-1.5,3.3-3.3C1301.3,229.9,1299.8,228.5,1298,228.5z"/>
					<path id="XMLID_00000129915848430238939060000002411037376403488943_" class="st11" d="M1298,176.7c-1.8,0-3.3,1.5-3.3,3.3
						s1.5,3.3,3.3,3.3s3.3-1.5,3.3-3.3S1299.8,176.7,1298,176.7z"/>
				</g>
				<g id="XMLID_00000044900335395149100650000001049266901116926364_">
					<path id="XMLID_00000013890077927974061090000013619479605081569157_" class="st11" d="M1251.5,383.7c-1.8,0-3.3,1.5-3.3,3.3
						s1.5,3.3,3.3,3.3s3.3-1.5,3.3-3.3S1253.4,383.7,1251.5,383.7z"/>
					<path id="XMLID_00000057840353962947047610000003042086724349568445_" class="st11" d="M1251.5,332c-1.8,0-3.3,1.5-3.3,3.3
						s1.5,3.3,3.3,3.3s3.3-1.5,3.3-3.3C1254.8,333.4,1253.4,332,1251.5,332z"/>
					<path id="XMLID_00000062157645289170549120000011243807554035482772_" class="st11" d="M1251.5,280.2c-1.8,0-3.3,1.5-3.3,3.3
						s1.5,3.3,3.3,3.3s3.3-1.5,3.3-3.3S1253.4,280.2,1251.5,280.2z"/>
					<path id="XMLID_00000008110472996526546920000017376161481280204703_" class="st11" d="M1251.5,228.5c-1.8,0-3.3,1.5-3.3,3.3
						s1.5,3.3,3.3,3.3s3.3-1.5,3.3-3.3S1253.4,228.5,1251.5,228.5z"/>
					<path id="XMLID_00000114764814822659482020000004369477801330381967_" class="st11" d="M1251.5,176.7c-1.8,0-3.3,1.5-3.3,3.3
						s1.5,3.3,3.3,3.3s3.3-1.5,3.3-3.3S1253.4,176.7,1251.5,176.7z"/>
				</g>
			</g>
		</g>
		<polygon class="st12" points="2427.6,477.1 2443.5,511 2409.5,526.7 2393.7,492.9 		"/>
		<ellipse class="st13" cx="2436.9" cy="1175.3" rx="17.2" ry="17.2"/>
		<ellipse class="st13" cx="2464.2" cy="206.5" rx="17.2" ry="17.2"/>
		<ellipse class="st14" cx="2513.4" cy="492.2" rx="159.4" ry="158.7"/>
		<ellipse class="st14" cx="1168.9" cy="1107.1" rx="157.6" ry="156.9"/>
		<ellipse class="st14" cx="374.7" cy="332.8" rx="155.8" ry="155.1"/>
		<ellipse class="st14" cx="1848.1" cy="711.1" rx="156.3" ry="155.6"/>
		<ellipse class="st14" cx="2215.4" cy="664.3" rx="67.6" ry="67.3"/>
	</g>
</g>
<g>
	<g>
		<path class="st16" d="M1483.9,1608.6c1.9,0,1.9-3,0-3S1482,1608.6,1483.9,1608.6L1483.9,1608.6z"/>
	</g>
</g>
</svg>
