<?xml version="1.0" encoding="utf-8"?>
<!-- Generator: Adobe Illustrator 24.0.3, SVG Export Plug-In . SVG Version: 6.00 Build 0)  -->
<svg version="1.1" id="Layer_1" xmlns="http://www.w3.org/2000/svg" xmlns:xlink="http://www.w3.org/1999/xlink" x="0px" y="0px"
	 viewBox="0 0 136 33" style="enable-background:new 0 0 136 33;" xml:space="preserve">
<g>
	<path d="M24.11,30.99c-8.06,0-14.62-6.56-14.62-14.63c0-8.06,6.56-14.62,14.62-14.62S38.74,8.3,38.74,16.36
		C38.74,24.43,32.18,30.99,24.11,30.99z M24.11,2.8c-7.48,0-13.56,6.08-13.56,13.56c0,7.48,6.08,13.56,13.56,13.56
		s13.56-6.08,13.56-13.56C37.68,8.89,31.59,2.8,24.11,2.8z"/>
</g>
<g>
	<path d="M19.98,16.33c0.41-0.6,0.96-1.1,1.59-1.46v-0.8v-2.09h4c0.44,0,0.85,0.13,1.18,0.36c0.35,0.24,0.63,0.58,0.8,0.97
		c0.11,0.27,0.18,0.57,0.18,0.88c0,0.42-0.12,0.82-0.32,1.15c0.4,0.29,0.76,0.64,1.05,1.04c0.46-0.61,0.74-1.37,0.74-2.19
		c0-0.3-0.04-0.6-0.11-0.88c-0.09-0.35-0.23-0.67-0.42-0.97c-0.14-0.22-0.3-0.43-0.49-0.62c-0.23-0.23-0.5-0.44-0.8-0.6
		c0.82-0.62,1.3-1.58,1.3-2.66c0-1.94-1.58-3.52-3.52-3.52h-5.19v3.18v0.37v2.06v1.42v2.89h0V16.33z M21.57,8.12V6.37h3.6
		c1.13,0,2.04,0.94,2.04,2.09c0,1.16-0.91,2.09-2.04,2.09h-3.6L21.57,8.12L21.57,8.12z"/>
	<path d="M28.89,18.29c-0.48-1.51-1.67-2.71-3.18-3.19l0.02,0.06l0.61,1.67c0.51,0.37,0.93,0.88,1.19,1.46H28.89z"/>
	<path d="M28.89,21.23h-1.36c-0.21,0.47-0.51,0.88-0.89,1.22c-0.64,0.58-1.49,0.93-2.42,0.93c-0.9,0-1.71-0.32-2.35-0.86
		c-0.53-0.45-0.93-1.06-1.13-1.74c-0.09-0.32-0.14-0.66-0.14-1.01c0-1.26,0.65-2.38,1.63-3.02l0.6-1.62l0.02-0.05
		c-2.03,0.59-3.52,2.47-3.52,4.69c0,2.7,2.19,4.89,4.89,4.89C26.42,24.65,28.27,23.21,28.89,21.23z"/>
	<path d="M24.89,14.2l-0.61-1.65l-0.61,1.64l-0.52,1.4l-1.99,5.38c0.26,0.41,0.59,0.76,0.99,1.04l2.12-5.49l2.1,5.43
		c0.39-0.29,0.72-0.66,0.97-1.08l-1.94-5.26L24.89,14.2z"/>
	<path d="M20.3,23.32l-0.26,0.71l-3.16-9.61h-1.6l4.7,13.32l1.29-3.43C20.9,24.02,20.58,23.69,20.3,23.32z"/>
	<path d="M31.69,14.41l-3.16,9.61l-0.26-0.71c-0.27,0.37-0.6,0.7-0.97,0.98l1.29,3.43l4.7-13.32H31.69z"/>
</g>
<g>
	<g>
		<path d="M48.8,14.15l-0.17-0.11l0.15-0.13c0.38-0.32,0.56-0.75,0.56-1.26c0-1.08-0.87-1.87-2.08-1.87h-2.61v6.76h2.81
			c1.23,0,2.13-0.81,2.13-1.92C49.61,15,49.32,14.48,48.8,14.15z M45.97,11.99h1.3c0.46,0,0.77,0.32,0.77,0.78
			c0,0.45-0.33,0.78-0.77,0.78h-1.3V11.99z M47.47,16.33h-1.5v-1.66h1.5c0.49,0,0.82,0.34,0.82,0.83
			C48.29,15.99,47.96,16.33,47.47,16.33z"/>
	</g>
	<g>
		<path d="M53.03,16.29v-5.5h-1.31v6.76h3.83v-1.25H53.03z"/>
	</g>
	<g>
		<path d="M61.37,10.78h-1.84l-2.3,6.76h1.45l0.35-1.11h2.84l0.35,1.11h1.44L61.37,10.78z M59.42,15.22l1.03-3.24l1.03,3.24H59.42z"
			/>
	</g>
	<g>
		<path d="M68.61,16.41c-1.32,0-2.21-0.91-2.21-2.25c0-1.35,0.89-2.25,2.21-2.25c0.71,0,1.33,0.3,1.68,0.81l1.13-0.65
			c-0.61-0.9-1.65-1.43-2.81-1.43c-2,0-3.52,1.51-3.52,3.52c0,2,1.51,3.52,3.52,3.52c1.17,0,2.21-0.53,2.81-1.43l-1.12-0.66
			C69.95,16.1,69.33,16.41,68.61,16.41z"/>
	</g>
	<g>
		<path d="M73.56,10.78v6.76h1.31v-6.76H73.56z M76.45,14.07l2.28-3.29h-1.47l-2.3,3.27l2.41,3.48h1.46L76.45,14.07z"/>
	</g>
	<g>
		<path d="M92.04,10.78l-1.33,5.39l-1.48-5.39h-1.08l-1.49,5.39l-1.33-5.39h-1.37l1.86,6.76h1.6l1.27-4.59l1.26,4.59h1.6l1.87-6.76
			H92.04z"/>
	</g>
	<g>
		<path d="M96.8,16.29v-1.56h2.52V13.5H96.8v-1.48h2.77v-1.25h-4.08v6.76h4.14v-1.25H96.8z"/>
	</g>
	<g>
		<path d="M105.54,10.78h-1.84l-2.3,6.76h1.45l0.35-1.11h2.84l0.35,1.11h1.44L105.54,10.78z M103.58,15.22l1.04-3.24l1.03,3.24
			H103.58z"/>
	</g>
	<g>
		<path d="M111.13,16.29v-5.5h-1.31v6.76h3.83v-1.25H111.13z"/>
	</g>
	<g>
		<path d="M114.46,10.78v1.25h1.82v5.51h1.31v-5.51h1.82v-1.25H114.46z"/>
	</g>
	<g>
		<path d="M125.25,10.78v2.7h-2.53v-2.7h-1.31v6.76h1.31v-2.81h2.53v2.81h1.31v-6.76H125.25z"/>
	</g>
</g>
<g>
	<path d="M63.32,23.82c0-1.34,0.99-2.36,2.36-2.36c0.82,0,1.55,0.41,1.95,1.05l-0.9,0.52c-0.2-0.35-0.59-0.56-1.05-0.56
		c-0.8,0-1.32,0.54-1.32,1.35c0,0.81,0.52,1.35,1.32,1.35c0.46,0,0.86-0.21,1.05-0.56l0.9,0.52c-0.39,0.64-1.12,1.05-1.95,1.05
		C64.32,26.18,63.32,25.16,63.32,23.82z"/>
	<path d="M69.8,23.82c0-1.34,1.06-2.36,2.36-2.36s2.36,1.02,2.36,2.36c0,1.34-1.06,2.36-2.36,2.36S69.8,25.16,69.8,23.82z
		 M73.49,23.82c0-0.81-0.58-1.35-1.32-1.35c-0.74,0-1.32,0.54-1.32,1.35c0,0.81,0.58,1.35,1.32,1.35
		C72.9,25.17,73.49,24.63,73.49,23.82z"/>
	<path d="M80.63,21.55v4.54h-0.78l-1.75-2.47v2.47h-1.04v-4.54h0.78l1.75,2.47v-2.47H80.63z"/>
	<path d="M86.92,21.55v4.54h-0.78l-1.75-2.47v2.47h-1.04v-4.54h0.78l1.75,2.47v-2.47H86.92z"/>
	<path d="M92.5,25.09v1h-2.85v-4.54h2.82v1h-1.78v0.75h1.62v0.99h-1.62v0.8H92.5z"/>
	<path d="M94.8,23.82c0-1.34,0.99-2.36,2.36-2.36c0.82,0,1.55,0.41,1.95,1.05l-0.9,0.52c-0.2-0.35-0.59-0.56-1.05-0.56
		c-0.8,0-1.32,0.54-1.32,1.35c0,0.81,0.52,1.35,1.32,1.35c0.46,0,0.86-0.21,1.05-0.56l0.9,0.52c-0.39,0.64-1.12,1.05-1.95,1.05
		C95.79,26.18,94.8,25.16,94.8,23.82z"/>
	<path d="M104.59,22.55h-1.17v3.54h-1.04v-3.54h-1.17v-1h3.37V22.55z"/>
</g>
</svg>
